<svg width="1024" height="753" viewBox="0 0 1024 753" fill="none" xmlns="http://www.w3.org/2000/svg">
<g clip-path="url(#clip0_122_130)">
<rect width="1024" height="753" fill="#121214"/>
<g opacity="0.2" filter="url(#filter0_f_122_130)">
<ellipse cx="549.5" cy="99" rx="670.5" ry="350" fill="#35875D"/>
</g>
<path d="M70.0349 335C71.5302 335 72.6622 335.63 73.4308 336.891C74.2134 338.138 74.6047 339.953 74.6047 342.336C74.6047 344.719 74.2134 346.541 73.4308 347.802C72.6622 349.063 71.5302 349.693 70.0349 349.693C68.5536 349.693 67.4216 349.063 66.639 347.802C65.8564 346.541 65.4651 344.719 65.4651 342.336C65.4651 339.967 65.8564 338.152 66.639 336.891C67.4216 335.63 68.5536 335 70.0349 335ZM66.9534 342.336C66.9534 344.026 67.1072 345.35 67.4146 346.306L72.0683 337.099C71.5791 336.448 70.9013 336.122 70.0349 336.122C69.0706 336.122 68.316 336.635 67.771 337.66C67.2259 338.672 66.9534 340.23 66.9534 342.336ZM70.0349 348.55C71.0131 348.55 71.7748 348.044 72.3198 347.033C72.8648 346.008 73.1373 344.442 73.1373 342.336C73.1373 340.549 72.9627 339.163 72.6133 338.18L67.9596 347.469C68.4627 348.19 69.1545 348.55 70.0349 348.55Z" fill="url(#paint0_linear_122_130)" fill-opacity="0.6"/>
<path d="M71.2926 372.135H74.3741V373.236H66.3874V372.135H69.9511V360.455L66.5551 362.471L65.9682 361.536L70.1607 358.959H71.2926V372.135Z" fill="url(#paint1_linear_122_130)" fill-opacity="0.6"/>
<path d="M70.0349 382.502C71.5302 382.502 72.6622 383.133 73.4308 384.393C74.2134 385.64 74.6047 387.455 74.6047 389.838C74.6047 392.221 74.2134 394.043 73.4308 395.304C72.6622 396.565 71.5302 397.195 70.0349 397.195C68.5536 397.195 67.4216 396.565 66.639 395.304C65.8564 394.043 65.4651 392.221 65.4651 389.838C65.4651 387.469 65.8564 385.654 66.639 384.393C67.4216 383.133 68.5536 382.502 70.0349 382.502ZM66.9534 389.838C66.9534 391.529 67.1072 392.852 67.4146 393.808L72.0683 384.601C71.5791 383.95 70.9013 383.624 70.0349 383.624C69.0706 383.624 68.316 384.137 67.771 385.162C67.2259 386.174 66.9534 387.732 66.9534 389.838ZM70.0349 396.052C71.0131 396.052 71.7748 395.546 72.3198 394.535C72.8648 393.51 73.1373 391.944 73.1373 389.838C73.1373 388.051 72.9627 386.665 72.6133 385.682L67.9596 394.971C68.4627 395.692 69.1545 396.052 70.0349 396.052Z" fill="url(#paint2_linear_122_130)" fill-opacity="0.6"/>
<path d="M71.2926 419.637H74.3741V420.738H66.3874V419.637H69.9511V407.957L66.5551 409.973L65.9682 409.038L70.1607 406.461H71.2926V419.637Z" fill="url(#paint3_linear_122_130)" fill-opacity="0.6"/>
<path d="M71.2926 443.388H74.3741V444.489H66.3874V443.388H69.9511V431.708L66.5551 433.724L65.9682 432.789L70.1607 430.212H71.2926V443.388Z" fill="url(#paint4_linear_122_130)" fill-opacity="0.6"/>
<path d="M70.0349 453.755C71.5302 453.755 72.6622 454.386 73.4308 455.646C74.2134 456.893 74.6047 458.708 74.6047 461.091C74.6047 463.474 74.2134 465.296 73.4308 466.557C72.6622 467.818 71.5302 468.448 70.0349 468.448C68.5536 468.448 67.4216 467.818 66.639 466.557C65.8564 465.296 65.4651 463.474 65.4651 461.091C65.4651 458.722 65.8564 456.907 66.639 455.646C67.4216 454.386 68.5536 453.755 70.0349 453.755ZM66.9534 461.091C66.9534 462.782 67.1072 464.105 67.4146 465.061L72.0683 455.854C71.5791 455.203 70.9013 454.878 70.0349 454.878C69.0706 454.878 68.316 455.39 67.771 456.415C67.2259 457.427 66.9534 458.985 66.9534 461.091ZM70.0349 467.305C71.0131 467.305 71.7748 466.8 72.3198 465.788C72.8648 464.763 73.1373 463.197 73.1373 461.091C73.1373 459.304 72.9627 457.919 72.6133 456.935L67.9596 466.225C68.4627 466.945 69.1545 467.305 70.0349 467.305Z" fill="url(#paint5_linear_122_130)" fill-opacity="0.6"/>
<path d="M71.2926 490.89H74.3741V491.992H66.3874V490.89H69.9511V479.21L66.5551 481.226L65.9682 480.291L70.1607 477.714H71.2926V490.89Z" fill="url(#paint6_linear_122_130)" fill-opacity="0.6"/>
<path d="M70.0349 501.257C71.5302 501.257 72.6622 501.888 73.4308 503.149C74.2134 504.396 74.6047 506.211 74.6047 508.594C74.6047 510.977 74.2134 512.798 73.4308 514.059C72.6622 515.32 71.5302 515.95 70.0349 515.95C68.5536 515.95 67.4216 515.32 66.639 514.059C65.8564 512.798 65.4651 510.977 65.4651 508.594C65.4651 506.224 65.8564 504.409 66.639 503.149C67.4216 501.888 68.5536 501.257 70.0349 501.257ZM66.9534 508.594C66.9534 510.284 67.1072 511.607 67.4146 512.563L72.0683 503.356C71.5791 502.705 70.9013 502.38 70.0349 502.38C69.0706 502.38 68.316 502.892 67.771 503.918C67.2259 504.929 66.9534 506.488 66.9534 508.594ZM70.0349 514.807C71.0131 514.807 71.7748 514.302 72.3198 513.29C72.8648 512.265 73.1373 510.699 73.1373 508.594C73.1373 506.806 72.9627 505.421 72.6133 504.437L67.9596 513.727C68.4627 514.447 69.1545 514.807 70.0349 514.807Z" fill="url(#paint7_linear_122_130)" fill-opacity="0.6"/>
<path d="M70.0349 525.008C71.5302 525.008 72.6622 525.639 73.4308 526.9C74.2134 528.147 74.6047 529.962 74.6047 532.345C74.6047 534.728 74.2134 536.549 73.4308 537.81C72.6622 539.071 71.5302 539.701 70.0349 539.701C68.5536 539.701 67.4216 539.071 66.639 537.81C65.8564 536.549 65.4651 534.728 65.4651 532.345C65.4651 529.975 65.8564 528.16 66.639 526.9C67.4216 525.639 68.5536 525.008 70.0349 525.008ZM66.9534 532.345C66.9534 534.035 67.1072 535.358 67.4146 536.314L72.0683 527.107C71.5791 526.456 70.9013 526.131 70.0349 526.131C69.0706 526.131 68.316 526.643 67.771 527.669C67.2259 528.68 66.9534 530.239 66.9534 532.345ZM70.0349 538.558C71.0131 538.558 71.7748 538.053 72.3198 537.041C72.8648 536.016 73.1373 534.451 73.1373 532.345C73.1373 530.557 72.9627 529.172 72.6133 528.188L67.9596 537.478C68.4627 538.198 69.1545 538.558 70.0349 538.558Z" fill="url(#paint8_linear_122_130)" fill-opacity="0.6"/>
<path d="M71.2926 562.143H74.3741V563.245H66.3874V562.143H69.9511V550.464L66.5551 552.48L65.9682 551.544L70.1607 548.967H71.2926V562.143Z" fill="url(#paint9_linear_122_130)" fill-opacity="0.6"/>
<path d="M70.0349 572.511C71.5302 572.511 72.6622 573.141 73.4308 574.402C74.2134 575.649 74.6047 577.464 74.6047 579.847C74.6047 582.23 74.2134 584.052 73.4308 585.312C72.6622 586.573 71.5302 587.204 70.0349 587.204C68.5536 587.204 67.4216 586.573 66.639 585.312C65.8564 584.052 65.4651 582.23 65.4651 579.847C65.4651 577.478 65.8564 575.663 66.639 574.402C67.4216 573.141 68.5536 572.511 70.0349 572.511ZM66.9534 579.847C66.9534 581.537 67.1072 582.86 67.4146 583.816L72.0683 574.61C71.5791 573.958 70.9013 573.633 70.0349 573.633C69.0706 573.633 68.316 574.145 67.771 575.171C67.2259 576.182 66.9534 577.741 66.9534 579.847ZM70.0349 586.061C71.0131 586.061 71.7748 585.555 72.3198 584.543C72.8648 583.518 73.1373 581.953 73.1373 579.847C73.1373 578.059 72.9627 576.674 72.6133 575.69L67.9596 584.98C68.4627 585.7 69.1545 586.061 70.0349 586.061Z" fill="url(#paint10_linear_122_130)" fill-opacity="0.6"/>
<path d="M71.2926 609.645H74.3741V610.747H66.3874V609.645H69.9511V597.966L66.5551 599.982L65.9682 599.046L70.1607 596.469H71.2926V609.645Z" fill="url(#paint11_linear_122_130)" fill-opacity="0.6"/>
<path d="M71.2926 633.396H74.3741V634.498H66.3874V633.396H69.9511V621.717L66.5551 623.733L65.9682 622.798L70.1607 620.221H71.2926V633.396Z" fill="url(#paint12_linear_122_130)" fill-opacity="0.6"/>
<path d="M108.965 382.502C110.46 382.502 111.592 383.133 112.361 384.393C113.144 385.64 113.535 387.455 113.535 389.838C113.535 392.221 113.144 394.043 112.361 395.304C111.592 396.565 110.46 397.195 108.965 397.195C107.484 397.195 106.352 396.565 105.569 395.304C104.787 394.043 104.395 392.221 104.395 389.838C104.395 387.469 104.787 385.654 105.569 384.393C106.352 383.133 107.484 382.502 108.965 382.502ZM105.884 389.838C105.884 391.529 106.037 392.852 106.345 393.808L110.998 384.601C110.509 383.95 109.832 383.624 108.965 383.624C108.001 383.624 107.246 384.137 106.701 385.162C106.156 386.174 105.884 387.732 105.884 389.838ZM108.965 396.052C109.943 396.052 110.705 395.546 111.25 394.535C111.795 393.51 112.068 391.944 112.068 389.838C112.068 388.051 111.893 386.665 111.543 385.682L106.89 394.971C107.393 395.692 108.085 396.052 108.965 396.052Z" fill="url(#paint13_linear_122_130)" fill-opacity="0.6"/>
<path d="M110.223 419.637H113.304V420.738H105.318V419.637H108.881V407.957L105.485 409.973L104.898 409.038L109.091 406.461H110.223V419.637Z" fill="url(#paint14_linear_122_130)" fill-opacity="0.6"/>
<path d="M108.965 430.004C110.46 430.004 111.592 430.635 112.361 431.895C113.144 433.142 113.535 434.957 113.535 437.34C113.535 439.723 113.144 441.545 112.361 442.806C111.592 444.067 110.46 444.697 108.965 444.697C107.484 444.697 106.352 444.067 105.569 442.806C104.787 441.545 104.395 439.723 104.395 437.34C104.395 434.971 104.787 433.156 105.569 431.895C106.352 430.635 107.484 430.004 108.965 430.004ZM105.884 437.34C105.884 439.031 106.037 440.354 106.345 441.31L110.998 432.103C110.509 431.452 109.832 431.126 108.965 431.126C108.001 431.126 107.246 431.639 106.701 432.664C106.156 433.676 105.884 435.234 105.884 437.34ZM108.965 443.554C109.943 443.554 110.705 443.049 111.25 442.037C111.795 441.012 112.068 439.446 112.068 437.34C112.068 435.553 111.893 434.168 111.543 433.184L106.89 442.474C107.393 443.194 108.085 443.554 108.965 443.554Z" fill="url(#paint15_linear_122_130)" fill-opacity="0.6"/>
<path d="M108.965 453.755C110.46 453.755 111.592 454.386 112.361 455.646C113.144 456.893 113.535 458.708 113.535 461.091C113.535 463.474 113.144 465.296 112.361 466.557C111.592 467.818 110.46 468.448 108.965 468.448C107.484 468.448 106.352 467.818 105.569 466.557C104.787 465.296 104.395 463.474 104.395 461.091C104.395 458.722 104.787 456.907 105.569 455.646C106.352 454.386 107.484 453.755 108.965 453.755ZM105.884 461.091C105.884 462.782 106.037 464.105 106.345 465.061L110.998 455.854C110.509 455.203 109.832 454.878 108.965 454.878C108.001 454.878 107.246 455.39 106.701 456.415C106.156 457.427 105.884 458.985 105.884 461.091ZM108.965 467.305C109.943 467.305 110.705 466.8 111.25 465.788C111.795 464.763 112.068 463.197 112.068 461.091C112.068 459.304 111.893 457.919 111.543 456.935L106.89 466.225C107.393 466.945 108.085 467.305 108.965 467.305Z" fill="url(#paint16_linear_122_130)" fill-opacity="0.6"/>
<path d="M110.223 490.89H113.304V491.992H105.318V490.89H108.881V479.21L105.485 481.226L104.898 480.291L109.091 477.714H110.223V490.89Z" fill="url(#paint17_linear_122_130)" fill-opacity="0.6"/>
<path d="M108.965 501.257C110.46 501.257 111.592 501.888 112.361 503.149C113.144 504.396 113.535 506.211 113.535 508.594C113.535 510.977 113.144 512.798 112.361 514.059C111.592 515.32 110.46 515.95 108.965 515.95C107.484 515.95 106.352 515.32 105.569 514.059C104.787 512.798 104.395 510.977 104.395 508.594C104.395 506.224 104.787 504.409 105.569 503.149C106.352 501.888 107.484 501.257 108.965 501.257ZM105.884 508.594C105.884 510.284 106.037 511.607 106.345 512.563L110.998 503.356C110.509 502.705 109.832 502.38 108.965 502.38C108.001 502.38 107.246 502.892 106.701 503.918C106.156 504.929 105.884 506.488 105.884 508.594ZM108.965 514.807C109.943 514.807 110.705 514.302 111.25 513.29C111.795 512.265 112.068 510.699 112.068 508.594C112.068 506.806 111.893 505.421 111.543 504.437L106.89 513.727C107.393 514.447 108.085 514.807 108.965 514.807Z" fill="url(#paint18_linear_122_130)" fill-opacity="0.6"/>
<path d="M110.223 538.392H113.304V539.494H105.318V538.392H108.881V526.713L105.485 528.728L104.898 527.793L109.091 525.216H110.223V538.392Z" fill="url(#paint19_linear_122_130)" fill-opacity="0.6"/>
<path d="M108.965 548.76C110.46 548.76 111.592 549.39 112.361 550.651C113.144 551.898 113.535 553.713 113.535 556.096C113.535 558.479 113.144 560.301 112.361 561.561C111.592 562.822 110.46 563.453 108.965 563.453C107.484 563.453 106.352 562.822 105.569 561.561C104.787 560.301 104.395 558.479 104.395 556.096C104.395 553.726 104.787 551.911 105.569 550.651C106.352 549.39 107.484 548.76 108.965 548.76ZM105.884 556.096C105.884 557.786 106.037 559.109 106.345 560.065L110.998 550.859C110.509 550.207 109.832 549.882 108.965 549.882C108.001 549.882 107.246 550.394 106.701 551.42C106.156 552.431 105.884 553.99 105.884 556.096ZM108.965 562.31C109.943 562.31 110.705 561.804 111.25 560.792C111.795 559.767 112.068 558.202 112.068 556.096C112.068 554.308 111.893 552.923 111.543 551.939L106.89 561.229C107.393 561.949 108.085 562.31 108.965 562.31Z" fill="url(#paint20_linear_122_130)" fill-opacity="0.6"/>
<path d="M108.965 572.511C110.46 572.511 111.592 573.141 112.361 574.402C113.144 575.649 113.535 577.464 113.535 579.847C113.535 582.23 113.144 584.052 112.361 585.312C111.592 586.573 110.46 587.204 108.965 587.204C107.484 587.204 106.352 586.573 105.569 585.312C104.787 584.052 104.395 582.23 104.395 579.847C104.395 577.478 104.787 575.663 105.569 574.402C106.352 573.141 107.484 572.511 108.965 572.511ZM105.884 579.847C105.884 581.537 106.037 582.86 106.345 583.816L110.998 574.61C110.509 573.958 109.832 573.633 108.965 573.633C108.001 573.633 107.246 574.145 106.701 575.171C106.156 576.182 105.884 577.741 105.884 579.847ZM108.965 586.061C109.943 586.061 110.705 585.555 111.25 584.543C111.795 583.518 112.068 581.953 112.068 579.847C112.068 578.059 111.893 576.674 111.543 575.69L106.89 584.98C107.393 585.7 108.085 586.061 108.965 586.061Z" fill="url(#paint21_linear_122_130)" fill-opacity="0.6"/>
<path d="M110.223 609.645H113.304V610.747H105.318V609.645H108.881V597.966L105.485 599.982L104.898 599.046L109.091 596.469H110.223V609.645Z" fill="url(#paint22_linear_122_130)" fill-opacity="0.6"/>
<path d="M108.965 620.013C110.46 620.013 111.592 620.643 112.361 621.904C113.144 623.151 113.535 624.966 113.535 627.349C113.535 629.732 113.144 631.554 112.361 632.815C111.592 634.075 110.46 634.706 108.965 634.706C107.484 634.706 106.352 634.075 105.569 632.815C104.787 631.554 104.395 629.732 104.395 627.349C104.395 624.98 104.787 623.165 105.569 621.904C106.352 620.643 107.484 620.013 108.965 620.013ZM105.884 627.349C105.884 629.039 106.037 630.362 106.345 631.318L110.998 622.112C110.509 621.461 109.832 621.135 108.965 621.135C108.001 621.135 107.246 621.648 106.701 622.673C106.156 623.684 105.884 625.243 105.884 627.349ZM108.965 633.563C109.943 633.563 110.705 633.057 111.25 632.046C111.795 631.02 112.068 629.455 112.068 627.349C112.068 625.562 111.893 624.176 111.543 623.192L106.89 632.482C107.393 633.202 108.085 633.563 108.965 633.563Z" fill="url(#paint23_linear_122_130)" fill-opacity="0.6"/>
<path d="M110.223 657.148H113.304V658.249H105.318V657.148H108.881V645.468L105.485 647.484L104.898 646.549L109.091 643.972H110.223V657.148Z" fill="url(#paint24_linear_122_130)" fill-opacity="0.6"/>
<path d="M110.223 680.899H113.304V682H105.318V680.899H108.881V669.219L105.485 671.235L104.898 670.3L109.091 667.723H110.223V680.899Z" fill="url(#paint25_linear_122_130)" fill-opacity="0.6"/>
<path d="M50.5698 406.253C52.0651 406.253 53.1971 406.884 53.9657 408.144C54.7483 409.391 55.1396 411.206 55.1396 413.589C55.1396 415.972 54.7483 417.794 53.9657 419.055C53.1971 420.316 52.0651 420.946 50.5698 420.946C49.0885 420.946 47.9565 420.316 47.1739 419.055C46.3913 417.794 46 415.972 46 413.589C46 411.22 46.3913 409.405 47.1739 408.144C47.9565 406.884 49.0885 406.253 50.5698 406.253ZM47.4883 413.589C47.4883 415.28 47.6421 416.603 47.9495 417.559L52.6032 408.352C52.114 407.701 51.4363 407.375 50.5698 407.375C49.6055 407.375 48.8509 407.888 48.3059 408.913C47.7608 409.925 47.4883 411.483 47.4883 413.589ZM50.5698 419.803C51.5481 419.803 52.3097 419.297 52.8547 418.286C53.3997 417.261 53.6722 415.695 53.6722 413.589C53.6722 411.802 53.4976 410.417 53.1482 409.433L48.4945 418.722C48.9976 419.443 49.6894 419.803 50.5698 419.803Z" fill="url(#paint26_linear_122_130)" fill-opacity="0.6"/>
<path d="M50.5698 430.004C52.0651 430.004 53.1971 430.635 53.9657 431.895C54.7483 433.142 55.1396 434.957 55.1396 437.34C55.1396 439.723 54.7483 441.545 53.9657 442.806C53.1971 444.067 52.0651 444.697 50.5698 444.697C49.0885 444.697 47.9565 444.067 47.1739 442.806C46.3913 441.545 46 439.723 46 437.34C46 434.971 46.3913 433.156 47.1739 431.895C47.9565 430.635 49.0885 430.004 50.5698 430.004ZM47.4883 437.34C47.4883 439.031 47.6421 440.354 47.9495 441.31L52.6032 432.103C52.114 431.452 51.4363 431.126 50.5698 431.126C49.6055 431.126 48.8509 431.639 48.3059 432.664C47.7608 433.676 47.4883 435.234 47.4883 437.34ZM50.5698 443.554C51.5481 443.554 52.3097 443.049 52.8547 442.037C53.3997 441.012 53.6722 439.446 53.6722 437.34C53.6722 435.553 53.4976 434.168 53.1482 433.184L48.4945 442.474C48.9976 443.194 49.6894 443.554 50.5698 443.554Z" fill="url(#paint27_linear_122_130)" fill-opacity="0.6"/>
<path d="M51.8276 467.139H54.909V468.24H46.9223V467.139H50.486V455.459L47.09 457.475L46.5031 456.54L50.6956 453.963H51.8276V467.139Z" fill="url(#paint28_linear_122_130)" fill-opacity="0.6"/>
<path d="M50.5698 477.506C52.0651 477.506 53.1971 478.137 53.9657 479.398C54.7483 480.644 55.1396 482.459 55.1396 484.842C55.1396 487.225 54.7483 489.047 53.9657 490.308C53.1971 491.569 52.0651 492.199 50.5698 492.199C49.0885 492.199 47.9565 491.569 47.1739 490.308C46.3913 489.047 46 487.225 46 484.842C46 482.473 46.3913 480.658 47.1739 479.398C47.9565 478.137 49.0885 477.506 50.5698 477.506ZM47.4883 484.842C47.4883 486.533 47.6421 487.856 47.9495 488.812L52.6032 479.605C52.114 478.954 51.4363 478.629 50.5698 478.629C49.6055 478.629 48.8509 479.141 48.3059 480.166C47.7608 481.178 47.4883 482.737 47.4883 484.842ZM50.5698 491.056C51.5481 491.056 52.3097 490.551 52.8547 489.539C53.3997 488.514 53.6722 486.948 53.6722 484.842C53.6722 483.055 53.4976 481.67 53.1482 480.686L48.4945 489.976C48.9976 490.696 49.6894 491.056 50.5698 491.056Z" fill="url(#paint29_linear_122_130)" fill-opacity="0.6"/>
<path d="M51.8276 514.641H54.909V515.743H46.9223V514.641H50.486V502.962L47.09 504.977L46.5031 504.042L50.6956 501.465H51.8276V514.641Z" fill="url(#paint30_linear_122_130)" fill-opacity="0.6"/>
<path d="M51.8276 538.392H54.909V539.494H46.9223V538.392H50.486V526.713L47.09 528.728L46.5031 527.793L50.6956 525.216H51.8276V538.392Z" fill="url(#paint31_linear_122_130)" fill-opacity="0.6"/>
<path d="M90.7577 372.135H93.8392V373.236H85.8525V372.135H89.4162V360.455L86.0202 362.471L85.4333 361.536L89.6258 358.959H90.7577V372.135Z" fill="url(#paint32_linear_122_130)" fill-opacity="0.6"/>
<path d="M89.5 382.502C90.9953 382.502 92.1273 383.133 92.8959 384.393C93.6785 385.64 94.0698 387.455 94.0698 389.838C94.0698 392.221 93.6785 394.043 92.8959 395.304C92.1273 396.565 90.9953 397.195 89.5 397.195C88.0187 397.195 86.8867 396.565 86.1041 395.304C85.3215 394.043 84.9302 392.221 84.9302 389.838C84.9302 387.469 85.3215 385.654 86.1041 384.393C86.8867 383.133 88.0187 382.502 89.5 382.502ZM86.4185 389.838C86.4185 391.529 86.5723 392.852 86.8797 393.808L91.5334 384.601C91.0442 383.95 90.3664 383.624 89.5 383.624C88.5357 383.624 87.7811 384.137 87.2361 385.162C86.691 386.174 86.4185 387.732 86.4185 389.838ZM89.5 396.052C90.4782 396.052 91.2399 395.546 91.7849 394.535C92.3299 393.51 92.6024 391.944 92.6024 389.838C92.6024 388.051 92.4277 386.665 92.0784 385.682L87.4247 394.971C87.9278 395.692 88.6196 396.052 89.5 396.052Z" fill="url(#paint33_linear_122_130)" fill-opacity="0.6"/>
<path d="M90.7577 419.637H93.8392V420.738H85.8525V419.637H89.4162V407.957L86.0202 409.973L85.4333 409.038L89.6258 406.461H90.7577V419.637Z" fill="url(#paint34_linear_122_130)" fill-opacity="0.6"/>
<path d="M90.7577 443.388H93.8392V444.489H85.8525V443.388H89.4162V431.708L86.0202 433.724L85.4333 432.789L89.6258 430.212H90.7577V443.388Z" fill="url(#paint35_linear_122_130)" fill-opacity="0.6"/>
<path d="M89.5 453.755C90.9953 453.755 92.1273 454.386 92.8959 455.646C93.6785 456.893 94.0698 458.708 94.0698 461.091C94.0698 463.474 93.6785 465.296 92.8959 466.557C92.1273 467.818 90.9953 468.448 89.5 468.448C88.0187 468.448 86.8867 467.818 86.1041 466.557C85.3215 465.296 84.9302 463.474 84.9302 461.091C84.9302 458.722 85.3215 456.907 86.1041 455.646C86.8867 454.386 88.0187 453.755 89.5 453.755ZM86.4185 461.091C86.4185 462.782 86.5723 464.105 86.8797 465.061L91.5334 455.854C91.0442 455.203 90.3664 454.878 89.5 454.878C88.5357 454.878 87.7811 455.39 87.2361 456.415C86.691 457.427 86.4185 458.985 86.4185 461.091ZM89.5 467.305C90.4782 467.305 91.2399 466.8 91.7849 465.788C92.3299 464.763 92.6024 463.197 92.6024 461.091C92.6024 459.304 92.4277 457.919 92.0784 456.935L87.4247 466.225C87.9278 466.945 88.6196 467.305 89.5 467.305Z" fill="url(#paint36_linear_122_130)" fill-opacity="0.6"/>
<path d="M90.7577 490.89H93.8392V491.992H85.8525V490.89H89.4162V479.21L86.0202 481.226L85.4333 480.291L89.6258 477.714H90.7577V490.89Z" fill="url(#paint37_linear_122_130)" fill-opacity="0.6"/>
<path d="M90.7577 514.641H93.8392V515.743H85.8525V514.641H89.4162V502.962L86.0202 504.977L85.4333 504.042L89.6258 501.465H90.7577V514.641Z" fill="url(#paint38_linear_122_130)" fill-opacity="0.6"/>
<path d="M89.5 525.008C90.9953 525.008 92.1273 525.639 92.8959 526.9C93.6785 528.147 94.0698 529.962 94.0698 532.345C94.0698 534.728 93.6785 536.549 92.8959 537.81C92.1273 539.071 90.9953 539.701 89.5 539.701C88.0187 539.701 86.8867 539.071 86.1041 537.81C85.3215 536.549 84.9302 534.728 84.9302 532.345C84.9302 529.975 85.3215 528.16 86.1041 526.9C86.8867 525.639 88.0187 525.008 89.5 525.008ZM86.4185 532.345C86.4185 534.035 86.5723 535.358 86.8797 536.314L91.5334 527.107C91.0442 526.456 90.3664 526.131 89.5 526.131C88.5357 526.131 87.7811 526.643 87.2361 527.669C86.691 528.68 86.4185 530.239 86.4185 532.345ZM89.5 538.558C90.4782 538.558 91.2399 538.053 91.7849 537.041C92.3299 536.016 92.6024 534.451 92.6024 532.345C92.6024 530.557 92.4277 529.172 92.0784 528.188L87.4247 537.478C87.9278 538.198 88.6196 538.558 89.5 538.558Z" fill="url(#paint39_linear_122_130)" fill-opacity="0.6"/>
<path d="M90.7577 562.143H93.8392V563.245H85.8525V562.143H89.4162V550.464L86.0202 552.48L85.4333 551.544L89.6258 548.967H90.7577V562.143Z" fill="url(#paint40_linear_122_130)" fill-opacity="0.6"/>
<path d="M89.5 572.511C90.9953 572.511 92.1273 573.141 92.8959 574.402C93.6785 575.649 94.0698 577.464 94.0698 579.847C94.0698 582.23 93.6785 584.052 92.8959 585.312C92.1273 586.573 90.9953 587.204 89.5 587.204C88.0187 587.204 86.8867 586.573 86.1041 585.312C85.3215 584.052 84.9302 582.23 84.9302 579.847C84.9302 577.478 85.3215 575.663 86.1041 574.402C86.8867 573.141 88.0187 572.511 89.5 572.511ZM86.4185 579.847C86.4185 581.537 86.5723 582.86 86.8797 583.816L91.5334 574.61C91.0442 573.958 90.3664 573.633 89.5 573.633C88.5357 573.633 87.7811 574.145 87.2361 575.171C86.691 576.182 86.4185 577.741 86.4185 579.847ZM89.5 586.061C90.4782 586.061 91.2399 585.555 91.7849 584.543C92.3299 583.518 92.6024 581.953 92.6024 579.847C92.6024 578.059 92.4277 576.674 92.0784 575.69L87.4247 584.98C87.9278 585.7 88.6196 586.061 89.5 586.061Z" fill="url(#paint41_linear_122_130)" fill-opacity="0.6"/>
<path d="M128.43 358.751C129.926 358.751 131.057 359.381 131.826 360.642C132.609 361.889 133 363.704 133 366.087C133 368.47 132.609 370.292 131.826 371.553C131.057 372.814 129.926 373.444 128.43 373.444C126.949 373.444 125.817 372.814 125.034 371.553C124.252 370.292 123.86 368.47 123.86 366.087C123.86 363.718 124.252 361.903 125.034 360.642C125.817 359.381 126.949 358.751 128.43 358.751ZM125.349 366.087C125.349 367.777 125.502 369.101 125.81 370.057L130.464 360.85C129.974 360.199 129.297 359.873 128.43 359.873C127.466 359.873 126.711 360.386 126.166 361.411C125.621 362.423 125.349 363.981 125.349 366.087ZM128.43 372.301C129.408 372.301 130.17 371.795 130.715 370.784C131.26 369.759 131.533 368.193 131.533 366.087C131.533 364.3 131.358 362.914 131.009 361.931L126.355 371.22C126.858 371.941 127.55 372.301 128.43 372.301Z" fill="url(#paint42_linear_122_130)" fill-opacity="0.6"/>
<path d="M129.688 395.886H132.769V396.987H124.783V395.886H128.346V384.206L124.95 386.222L124.363 385.287L128.556 382.71H129.688V395.886Z" fill="url(#paint43_linear_122_130)" fill-opacity="0.6"/>
<path d="M129.688 419.637H132.769V420.738H124.783V419.637H128.346V407.957L124.95 409.973L124.363 409.038L128.556 406.461H129.688V419.637Z" fill="url(#paint44_linear_122_130)" fill-opacity="0.6"/>
<path d="M128.43 430.004C129.926 430.004 131.057 430.635 131.826 431.895C132.609 433.142 133 434.957 133 437.34C133 439.723 132.609 441.545 131.826 442.806C131.057 444.067 129.926 444.697 128.43 444.697C126.949 444.697 125.817 444.067 125.034 442.806C124.252 441.545 123.86 439.723 123.86 437.34C123.86 434.971 124.252 433.156 125.034 431.895C125.817 430.635 126.949 430.004 128.43 430.004ZM125.349 437.34C125.349 439.031 125.502 440.354 125.81 441.31L130.464 432.103C129.974 431.452 129.297 431.126 128.43 431.126C127.466 431.126 126.711 431.639 126.166 432.664C125.621 433.676 125.349 435.234 125.349 437.34ZM128.43 443.554C129.408 443.554 130.17 443.049 130.715 442.037C131.26 441.012 131.533 439.446 131.533 437.34C131.533 435.553 131.358 434.168 131.009 433.184L126.355 442.474C126.858 443.194 127.55 443.554 128.43 443.554Z" fill="url(#paint45_linear_122_130)" fill-opacity="0.6"/>
<path d="M128.43 453.755C129.926 453.755 131.057 454.386 131.826 455.646C132.609 456.893 133 458.708 133 461.091C133 463.474 132.609 465.296 131.826 466.557C131.057 467.818 129.926 468.448 128.43 468.448C126.949 468.448 125.817 467.818 125.034 466.557C124.252 465.296 123.86 463.474 123.86 461.091C123.86 458.722 124.252 456.907 125.034 455.646C125.817 454.386 126.949 453.755 128.43 453.755ZM125.349 461.091C125.349 462.782 125.502 464.105 125.81 465.061L130.464 455.854C129.974 455.203 129.297 454.878 128.43 454.878C127.466 454.878 126.711 455.39 126.166 456.415C125.621 457.427 125.349 458.985 125.349 461.091ZM128.43 467.305C129.408 467.305 130.17 466.8 130.715 465.788C131.26 464.763 131.533 463.197 131.533 461.091C131.533 459.304 131.358 457.919 131.009 456.935L126.355 466.225C126.858 466.945 127.55 467.305 128.43 467.305Z" fill="url(#paint46_linear_122_130)" fill-opacity="0.6"/>
</g>
<defs>
<filter id="filter0_f_122_130" x="-521.19" y="-651.19" width="2141.38" height="1500.38" filterUnits="userSpaceOnUse" color-interpolation-filters="sRGB">
<feFlood flood-opacity="0" result="BackgroundImageFix"/>
<feBlend mode="normal" in="SourceGraphic" in2="BackgroundImageFix" result="shape"/>
<feGaussianBlur stdDeviation="200.095" result="effect1_foregroundBlur_122_130"/>
</filter>
<linearGradient id="paint0_linear_122_130" x1="89.5" y1="335" x2="89.5" y2="646.381" gradientUnits="userSpaceOnUse">
<stop stop-color="#F7DD43"/>
<stop offset="1" stop-color="#F7DD43" stop-opacity="0"/>
</linearGradient>
<linearGradient id="paint1_linear_122_130" x1="89.5" y1="335" x2="89.5" y2="646.381" gradientUnits="userSpaceOnUse">
<stop stop-color="#F7DD43"/>
<stop offset="1" stop-color="#F7DD43" stop-opacity="0"/>
</linearGradient>
<linearGradient id="paint2_linear_122_130" x1="89.5" y1="335" x2="89.5" y2="646.381" gradientUnits="userSpaceOnUse">
<stop stop-color="#F7DD43"/>
<stop offset="1" stop-color="#F7DD43" stop-opacity="0"/>
</linearGradient>
<linearGradient id="paint3_linear_122_130" x1="89.5" y1="335" x2="89.5" y2="646.381" gradientUnits="userSpaceOnUse">
<stop stop-color="#F7DD43"/>
<stop offset="1" stop-color="#F7DD43" stop-opacity="0"/>
</linearGradient>
<linearGradient id="paint4_linear_122_130" x1="89.5" y1="335" x2="89.5" y2="646.381" gradientUnits="userSpaceOnUse">
<stop stop-color="#F7DD43"/>
<stop offset="1" stop-color="#F7DD43" stop-opacity="0"/>
</linearGradient>
<linearGradient id="paint5_linear_122_130" x1="89.5" y1="335" x2="89.5" y2="646.381" gradientUnits="userSpaceOnUse">
<stop stop-color="#F7DD43"/>
<stop offset="1" stop-color="#F7DD43" stop-opacity="0"/>
</linearGradient>
<linearGradient id="paint6_linear_122_130" x1="89.5" y1="335" x2="89.5" y2="646.381" gradientUnits="userSpaceOnUse">
<stop stop-color="#F7DD43"/>
<stop offset="1" stop-color="#F7DD43" stop-opacity="0"/>
</linearGradient>
<linearGradient id="paint7_linear_122_130" x1="89.5" y1="335" x2="89.5" y2="646.381" gradientUnits="userSpaceOnUse">
<stop stop-color="#F7DD43"/>
<stop offset="1" stop-color="#F7DD43" stop-opacity="0"/>
</linearGradient>
<linearGradient id="paint8_linear_122_130" x1="89.5" y1="335" x2="89.5" y2="646.381" gradientUnits="userSpaceOnUse">
<stop stop-color="#F7DD43"/>
<stop offset="1" stop-color="#F7DD43" stop-opacity="0"/>
</linearGradient>
<linearGradient id="paint9_linear_122_130" x1="89.5" y1="335" x2="89.5" y2="646.381" gradientUnits="userSpaceOnUse">
<stop stop-color="#F7DD43"/>
<stop offset="1" stop-color="#F7DD43" stop-opacity="0"/>
</linearGradient>
<linearGradient id="paint10_linear_122_130" x1="89.5" y1="335" x2="89.5" y2="646.381" gradientUnits="userSpaceOnUse">
<stop stop-color="#F7DD43"/>
<stop offset="1" stop-color="#F7DD43" stop-opacity="0"/>
</linearGradient>
<linearGradient id="paint11_linear_122_130" x1="89.5" y1="335" x2="89.5" y2="646.381" gradientUnits="userSpaceOnUse">
<stop stop-color="#F7DD43"/>
<stop offset="1" stop-color="#F7DD43" stop-opacity="0"/>
</linearGradient>
<linearGradient id="paint12_linear_122_130" x1="89.5" y1="335" x2="89.5" y2="646.381" gradientUnits="userSpaceOnUse">
<stop stop-color="#F7DD43"/>
<stop offset="1" stop-color="#F7DD43" stop-opacity="0"/>
</linearGradient>
<linearGradient id="paint13_linear_122_130" x1="89.5" y1="335" x2="89.5" y2="646.381" gradientUnits="userSpaceOnUse">
<stop stop-color="#F7DD43"/>
<stop offset="1" stop-color="#F7DD43" stop-opacity="0"/>
</linearGradient>
<linearGradient id="paint14_linear_122_130" x1="89.5" y1="335" x2="89.5" y2="646.381" gradientUnits="userSpaceOnUse">
<stop stop-color="#F7DD43"/>
<stop offset="1" stop-color="#F7DD43" stop-opacity="0"/>
</linearGradient>
<linearGradient id="paint15_linear_122_130" x1="89.5" y1="335" x2="89.5" y2="646.381" gradientUnits="userSpaceOnUse">
<stop stop-color="#F7DD43"/>
<stop offset="1" stop-color="#F7DD43" stop-opacity="0"/>
</linearGradient>
<linearGradient id="paint16_linear_122_130" x1="89.5" y1="335" x2="89.5" y2="646.381" gradientUnits="userSpaceOnUse">
<stop stop-color="#F7DD43"/>
<stop offset="1" stop-color="#F7DD43" stop-opacity="0"/>
</linearGradient>
<linearGradient id="paint17_linear_122_130" x1="89.5" y1="335" x2="89.5" y2="646.381" gradientUnits="userSpaceOnUse">
<stop stop-color="#F7DD43"/>
<stop offset="1" stop-color="#F7DD43" stop-opacity="0"/>
</linearGradient>
<linearGradient id="paint18_linear_122_130" x1="89.5" y1="335" x2="89.5" y2="646.381" gradientUnits="userSpaceOnUse">
<stop stop-color="#F7DD43"/>
<stop offset="1" stop-color="#F7DD43" stop-opacity="0"/>
</linearGradient>
<linearGradient id="paint19_linear_122_130" x1="89.5" y1="335" x2="89.5" y2="646.381" gradientUnits="userSpaceOnUse">
<stop stop-color="#F7DD43"/>
<stop offset="1" stop-color="#F7DD43" stop-opacity="0"/>
</linearGradient>
<linearGradient id="paint20_linear_122_130" x1="89.5" y1="335" x2="89.5" y2="646.381" gradientUnits="userSpaceOnUse">
<stop stop-color="#F7DD43"/>
<stop offset="1" stop-color="#F7DD43" stop-opacity="0"/>
</linearGradient>
<linearGradient id="paint21_linear_122_130" x1="89.5" y1="335" x2="89.5" y2="646.381" gradientUnits="userSpaceOnUse">
<stop stop-color="#F7DD43"/>
<stop offset="1" stop-color="#F7DD43" stop-opacity="0"/>
</linearGradient>
<linearGradient id="paint22_linear_122_130" x1="89.5" y1="335" x2="89.5" y2="646.381" gradientUnits="userSpaceOnUse">
<stop stop-color="#F7DD43"/>
<stop offset="1" stop-color="#F7DD43" stop-opacity="0"/>
</linearGradient>
<linearGradient id="paint23_linear_122_130" x1="89.5" y1="335" x2="89.5" y2="646.381" gradientUnits="userSpaceOnUse">
<stop stop-color="#F7DD43"/>
<stop offset="1" stop-color="#F7DD43" stop-opacity="0"/>
</linearGradient>
<linearGradient id="paint24_linear_122_130" x1="89.5" y1="335" x2="89.5" y2="646.381" gradientUnits="userSpaceOnUse">
<stop stop-color="#F7DD43"/>
<stop offset="1" stop-color="#F7DD43" stop-opacity="0"/>
</linearGradient>
<linearGradient id="paint25_linear_122_130" x1="89.5" y1="335" x2="89.5" y2="646.381" gradientUnits="userSpaceOnUse">
<stop stop-color="#F7DD43"/>
<stop offset="1" stop-color="#F7DD43" stop-opacity="0"/>
</linearGradient>
<linearGradient id="paint26_linear_122_130" x1="89.5" y1="335" x2="89.5" y2="646.381" gradientUnits="userSpaceOnUse">
<stop stop-color="#F7DD43"/>
<stop offset="1" stop-color="#F7DD43" stop-opacity="0"/>
</linearGradient>
<linearGradient id="paint27_linear_122_130" x1="89.5" y1="335" x2="89.5" y2="646.381" gradientUnits="userSpaceOnUse">
<stop stop-color="#F7DD43"/>
<stop offset="1" stop-color="#F7DD43" stop-opacity="0"/>
</linearGradient>
<linearGradient id="paint28_linear_122_130" x1="89.5" y1="335" x2="89.5" y2="646.381" gradientUnits="userSpaceOnUse">
<stop stop-color="#F7DD43"/>
<stop offset="1" stop-color="#F7DD43" stop-opacity="0"/>
</linearGradient>
<linearGradient id="paint29_linear_122_130" x1="89.5" y1="335" x2="89.5" y2="646.381" gradientUnits="userSpaceOnUse">
<stop stop-color="#F7DD43"/>
<stop offset="1" stop-color="#F7DD43" stop-opacity="0"/>
</linearGradient>
<linearGradient id="paint30_linear_122_130" x1="89.5" y1="335" x2="89.5" y2="646.381" gradientUnits="userSpaceOnUse">
<stop stop-color="#F7DD43"/>
<stop offset="1" stop-color="#F7DD43" stop-opacity="0"/>
</linearGradient>
<linearGradient id="paint31_linear_122_130" x1="89.5" y1="335" x2="89.5" y2="646.381" gradientUnits="userSpaceOnUse">
<stop stop-color="#F7DD43"/>
<stop offset="1" stop-color="#F7DD43" stop-opacity="0"/>
</linearGradient>
<linearGradient id="paint32_linear_122_130" x1="89.5" y1="335" x2="89.5" y2="646.381" gradientUnits="userSpaceOnUse">
<stop stop-color="#F7DD43"/>
<stop offset="1" stop-color="#F7DD43" stop-opacity="0"/>
</linearGradient>
<linearGradient id="paint33_linear_122_130" x1="89.5" y1="335" x2="89.5" y2="646.381" gradientUnits="userSpaceOnUse">
<stop stop-color="#F7DD43"/>
<stop offset="1" stop-color="#F7DD43" stop-opacity="0"/>
</linearGradient>
<linearGradient id="paint34_linear_122_130" x1="89.5" y1="335" x2="89.5" y2="646.381" gradientUnits="userSpaceOnUse">
<stop stop-color="#F7DD43"/>
<stop offset="1" stop-color="#F7DD43" stop-opacity="0"/>
</linearGradient>
<linearGradient id="paint35_linear_122_130" x1="89.5" y1="335" x2="89.5" y2="646.381" gradientUnits="userSpaceOnUse">
<stop stop-color="#F7DD43"/>
<stop offset="1" stop-color="#F7DD43" stop-opacity="0"/>
</linearGradient>
<linearGradient id="paint36_linear_122_130" x1="89.5" y1="335" x2="89.5" y2="646.381" gradientUnits="userSpaceOnUse">
<stop stop-color="#F7DD43"/>
<stop offset="1" stop-color="#F7DD43" stop-opacity="0"/>
</linearGradient>
<linearGradient id="paint37_linear_122_130" x1="89.5" y1="335" x2="89.5" y2="646.381" gradientUnits="userSpaceOnUse">
<stop stop-color="#F7DD43"/>
<stop offset="1" stop-color="#F7DD43" stop-opacity="0"/>
</linearGradient>
<linearGradient id="paint38_linear_122_130" x1="89.5" y1="335" x2="89.5" y2="646.381" gradientUnits="userSpaceOnUse">
<stop stop-color="#F7DD43"/>
<stop offset="1" stop-color="#F7DD43" stop-opacity="0"/>
</linearGradient>
<linearGradient id="paint39_linear_122_130" x1="89.5" y1="335" x2="89.5" y2="646.381" gradientUnits="userSpaceOnUse">
<stop stop-color="#F7DD43"/>
<stop offset="1" stop-color="#F7DD43" stop-opacity="0"/>
</linearGradient>
<linearGradient id="paint40_linear_122_130" x1="89.5" y1="335" x2="89.5" y2="646.381" gradientUnits="userSpaceOnUse">
<stop stop-color="#F7DD43"/>
<stop offset="1" stop-color="#F7DD43" stop-opacity="0"/>
</linearGradient>
<linearGradient id="paint41_linear_122_130" x1="89.5" y1="335" x2="89.5" y2="646.381" gradientUnits="userSpaceOnUse">
<stop stop-color="#F7DD43"/>
<stop offset="1" stop-color="#F7DD43" stop-opacity="0"/>
</linearGradient>
<linearGradient id="paint42_linear_122_130" x1="89.5" y1="335" x2="89.5" y2="646.381" gradientUnits="userSpaceOnUse">
<stop stop-color="#F7DD43"/>
<stop offset="1" stop-color="#F7DD43" stop-opacity="0"/>
</linearGradient>
<linearGradient id="paint43_linear_122_130" x1="89.5" y1="335" x2="89.5" y2="646.381" gradientUnits="userSpaceOnUse">
<stop stop-color="#F7DD43"/>
<stop offset="1" stop-color="#F7DD43" stop-opacity="0"/>
</linearGradient>
<linearGradient id="paint44_linear_122_130" x1="89.5" y1="335" x2="89.5" y2="646.381" gradientUnits="userSpaceOnUse">
<stop stop-color="#F7DD43"/>
<stop offset="1" stop-color="#F7DD43" stop-opacity="0"/>
</linearGradient>
<linearGradient id="paint45_linear_122_130" x1="89.5" y1="335" x2="89.5" y2="646.381" gradientUnits="userSpaceOnUse">
<stop stop-color="#F7DD43"/>
<stop offset="1" stop-color="#F7DD43" stop-opacity="0"/>
</linearGradient>
<linearGradient id="paint46_linear_122_130" x1="89.5" y1="335" x2="89.5" y2="646.381" gradientUnits="userSpaceOnUse">
<stop stop-color="#F7DD43"/>
<stop offset="1" stop-color="#F7DD43" stop-opacity="0"/>
</linearGradient>
<clipPath id="clip0_122_130">
<rect width="1024" height="753" fill="white"/>
</clipPath>
</defs>
</svg>
